# xmcd
#
# Track frame offsets: 
#        150
#        24498
#        59422
#
# Disc length: 1250 seconds
#
# Revision: 0
# Processed by: cddbd v1.5.2PL0 Copyright (c) Steve Scherf et al.
# Submitted via: ExactAudioCopy v0.99pb5
#
DISCID=1f04e003
DTITLE=Pelican - Ephemeral
DYEAR=2009
DGENRE=Metal
TTITLE0=Embedding the Moss
TTITLE1=Ephemeral
TTITLE2=Geometry of Murder
EXTD=
EXTT0=
EXTT1=
EXTT2=
PLAYORDER=
